<svg width="199" height="46" viewBox="0 0 199 46" fill="none" xmlns="http://www.w3.org/2000/svg">
<g clip-path="url(#clip0_278_93)">
<path d="M188.02 35.1358C184.884 35.1358 182.292 34.3998 180.244 32.9278C178.228 31.4558 177.092 29.4878 176.836 27.0238H183.22C183.444 28.0158 184.004 28.8158 184.9 29.4238C185.828 30.0318 186.948 30.3358 188.26 30.3358C189.636 30.3358 190.676 30.0798 191.38 29.5678C192.116 29.0558 192.484 28.4318 192.484 27.6958C192.484 27.0878 192.228 26.6078 191.716 26.2558C191.204 25.9038 190.292 25.6478 188.98 25.4878C188.5 25.4238 187.876 25.3278 187.108 25.1998C186.34 25.0718 185.716 24.9598 185.236 24.8638C183.924 24.6078 182.724 24.1918 181.636 23.6158C180.548 23.0398 179.668 22.2718 178.996 21.3118C178.356 20.3518 178.036 19.1518 178.036 17.7118C178.036 15.5998 178.82 13.8238 180.388 12.3838C181.988 10.9118 184.308 10.1758 187.348 10.1758C190.388 10.1758 192.804 10.8478 194.596 12.1918C196.388 13.5358 197.396 15.4238 197.62 17.8558H191.572C191.476 16.8958 191.012 16.1758 190.18 15.6958C189.38 15.2158 188.452 14.9758 187.396 14.9758C186.148 14.9758 185.188 15.2158 184.516 15.6958C183.844 16.1438 183.508 16.7038 183.508 17.3758C183.508 18.5278 184.564 19.2958 186.676 19.6798C186.996 19.7118 187.396 19.7758 187.876 19.8718C188.388 19.9358 188.916 20.0158 189.46 20.1118C190.004 20.1758 190.436 20.2398 190.756 20.3038C191.684 20.4318 192.596 20.6398 193.492 20.9278C194.388 21.2158 195.188 21.6158 195.892 22.1278C196.628 22.6078 197.204 23.2638 197.62 24.0958C198.068 24.9278 198.292 25.9518 198.292 27.1678C198.292 28.7358 197.892 30.1278 197.092 31.3438C196.292 32.5278 195.124 33.4558 193.588 34.1278C192.084 34.7998 190.228 35.1358 188.02 35.1358Z" fill="#5812CB"/>
<path d="M165.73 35.1358C163.298 35.1358 161.154 34.6238 159.298 33.5998C157.442 32.5438 155.986 31.1038 154.93 29.2798C153.874 27.4238 153.346 25.2798 153.346 22.8478C153.346 20.3838 153.858 18.1918 154.882 16.2718C155.938 14.3518 157.394 12.8638 159.25 11.8078C161.106 10.7198 163.266 10.1758 165.73 10.1758C168.098 10.1758 170.178 10.6878 171.97 11.7118C173.762 12.7358 175.154 14.1278 176.146 15.8878C177.17 17.6478 177.682 19.6478 177.682 21.8878C177.682 22.2078 177.682 22.5598 177.682 22.9438C177.682 23.3278 177.65 23.7278 177.586 24.1438H157.858V20.3038H171.394C171.298 18.7678 170.722 17.5358 169.666 16.6078C168.61 15.6798 167.314 15.2158 165.778 15.2158C164.626 15.2158 163.57 15.4718 162.61 15.9838C161.65 16.4958 160.882 17.2638 160.306 18.2878C159.762 19.2798 159.49 20.5598 159.49 22.1278V23.4718C159.49 24.8158 159.762 25.9838 160.306 26.9758C160.85 27.9678 161.586 28.7358 162.514 29.2798C163.442 29.7918 164.498 30.0478 165.682 30.0478C166.898 30.0478 167.922 29.7758 168.754 29.2318C169.586 28.6878 170.226 27.9678 170.674 27.0718H177.01C176.562 28.5758 175.81 29.9518 174.754 31.1998C173.73 32.4158 172.45 33.3758 170.914 34.0798C169.378 34.7838 167.65 35.1358 165.73 35.1358Z" fill="#5812CB"/>
<path d="M149.221 34.5602C147.621 34.5602 146.261 34.3842 145.141 34.0322C144.053 33.6482 143.237 32.9282 142.693 31.8722C142.149 30.7842 141.877 29.2322 141.877 27.2162V15.9842H137.797V10.7522H141.877V4.36816H148.117V10.7522H154.117V15.9842H148.117V26.4482C148.117 27.2482 148.197 27.8562 148.357 28.2722C148.517 28.6562 148.821 28.9122 149.269 29.0402C149.717 29.1682 150.325 29.2322 151.093 29.2322H153.973V34.5602H149.221Z" fill="#5812CB"/>
<path d="M109.82 45.12V40.176H114.908C115.388 40.176 115.788 40.112 116.108 39.984C116.428 39.888 116.732 39.648 117.02 39.264C117.308 38.88 117.612 38.288 117.932 37.488L119.996 33.024L119.66 35.76L109.292 10.752H116.06L122.684 27.408L129.596 10.752H136.22L123.548 39.648C123.036 40.832 122.572 41.776 122.156 42.48C121.772 43.216 121.388 43.76 121.004 44.112C120.62 44.496 120.156 44.752 119.612 44.88C119.1 45.04 118.428 45.12 117.596 45.12H109.82Z" fill="#5812CB"/>
<path d="M99.0409 35.136C97.2489 35.136 95.6809 34.8 94.3369 34.128C93.0249 33.456 91.9529 32.528 91.1209 31.344V34.56H84.8809V0H91.1209V14.16C91.8889 13.104 92.8969 12.176 94.1449 11.376C95.4249 10.576 97.0569 10.176 99.0409 10.176C101.281 10.176 103.281 10.72 105.041 11.808C106.801 12.896 108.193 14.384 109.217 16.272C110.241 18.16 110.753 20.304 110.753 22.704C110.753 25.072 110.241 27.2 109.217 29.088C108.193 30.976 106.801 32.464 105.041 33.552C103.281 34.608 101.281 35.136 99.0409 35.136ZM97.6489 29.712C98.9609 29.712 100.129 29.408 101.153 28.8C102.177 28.192 102.977 27.36 103.553 26.304C104.129 25.248 104.417 24.048 104.417 22.704C104.417 21.328 104.129 20.112 103.553 19.056C102.977 17.968 102.177 17.12 101.153 16.512C100.129 15.904 98.9609 15.6 97.6489 15.6C96.3369 15.6 95.1689 15.904 94.1449 16.512C93.1529 17.12 92.3689 17.952 91.7929 19.008C91.2489 20.064 90.9769 21.28 90.9769 22.656C90.9769 24.032 91.2489 25.248 91.7929 26.304C92.3689 27.36 93.1529 28.192 94.1449 28.8C95.1689 29.408 96.3369 29.712 97.6489 29.712Z" fill="#5812CB"/>
<path d="M68.7968 35.136C66.0768 35.136 63.9168 34.208 62.3168 32.352C60.7488 30.464 59.9648 27.728 59.9648 24.144V10.752H66.2048V23.568C66.2048 25.616 66.5888 27.184 67.3568 28.272C68.1568 29.328 69.3088 29.856 70.8128 29.856C72.5088 29.856 73.8208 29.264 74.7488 28.08C75.6768 26.864 76.1408 25.184 76.1408 23.04V10.752H82.3808V34.56H76.1408V31.056C75.4368 32.304 74.4768 33.296 73.2608 34.032C72.0448 34.768 70.5568 35.136 68.7968 35.136Z" fill="#5812CB"/>
<path d="M47.1079 35.1358C44.6759 35.1358 42.5159 34.6078 40.6279 33.5518C38.7719 32.4638 37.2999 30.9918 36.2119 29.1358C35.1559 27.2478 34.6279 25.0878 34.6279 22.6558C34.6279 20.2238 35.1559 18.0798 36.2119 16.2238C37.2999 14.3358 38.7719 12.8638 40.6279 11.8078C42.5159 10.7198 44.6759 10.1758 47.1079 10.1758C50.1479 10.1758 52.7079 10.9758 54.7879 12.5758C56.8679 14.1438 58.1959 16.3198 58.7719 19.1038H52.1959C51.9079 18.0158 51.2999 17.1518 50.3719 16.5118C49.4439 15.8398 48.3399 15.5038 47.0599 15.5038C45.9719 15.5038 44.9639 15.7918 44.0359 16.3678C43.1079 16.9438 42.3719 17.7598 41.8279 18.8158C41.2839 19.8718 41.0119 21.1518 41.0119 22.6558C41.0119 24.1278 41.2839 25.4078 41.8279 26.4958C42.3719 27.5838 43.1079 28.4158 44.0359 28.9918C44.9639 29.5358 45.9719 29.8078 47.0599 29.8078C48.3399 29.8078 49.4439 29.5038 50.3719 28.8958C51.2999 28.2558 51.9079 27.3598 52.1959 26.2078H58.7719C58.2279 28.8958 56.8999 31.0558 54.7879 32.6878C52.7079 34.3198 50.1479 35.1358 47.1079 35.1358Z" fill="#5812CB"/>
<path d="M9.7002 34.5598V10.7518H15.9402V14.3518C16.7082 13.0718 17.7642 12.0638 19.1082 11.3278C20.4522 10.5598 22.0202 10.1758 23.8122 10.1758C26.7882 10.1758 29.0762 11.1198 30.6762 13.0078C32.2762 14.8638 33.0762 17.5838 33.0762 21.1678V34.5598H26.8362V21.7438C26.8362 19.6958 26.4202 18.1438 25.5882 17.0878C24.7882 15.9998 23.5082 15.4558 21.7482 15.4558C20.0522 15.4558 18.6602 16.0638 17.5722 17.2798C16.4842 18.4638 15.9402 20.1278 15.9402 22.2718V34.5598H9.7002Z" fill="#5812CB"/>
<path d="M0.967773 34.5601V10.7521H7.20777V34.5601H0.967773ZM1.11177 6.81607V0.768066H7.15977V6.81607H1.11177Z" fill="#5812CB"/>
</g>
<defs>
<clipPath id="clip0_278_93">
<rect width="199" height="46" fill="white"/>
</clipPath>
</defs>
</svg>
