<svg width="12" height="12" viewBox="0 0 12 12" fill="none" xmlns="http://www.w3.org/2000/svg">
<path d="M10.2658 0.132045C8.95654 1.44232 7.64523 2.75659 6.31766 4.08486C6.14282 4.2589 5.86226 4.2609 5.68742 4.08486C4.36595 2.76459 3.05057 1.44832 1.73317 0.132045C1.55833 -0.0419912 1.27777 -0.039991 1.10496 0.134045C0.785773 0.458112 0.472685 0.780178 0.1474 1.11025C-0.0254083 1.28628 -0.0213423 1.57034 0.151466 1.74438C1.43431 3.02864 2.75172 4.34691 4.08742 5.68519C4.26226 5.85923 4.26023 6.14128 4.08742 6.31732C2.76188 7.6456 1.44041 8.96787 0.129102 10.2801C-0.0437058 10.4542 -0.0437059 10.7362 0.133168 10.9083L1.10496 11.8665C1.2798 12.0385 1.56443 12.0385 1.73723 11.8645L5.68539 7.91765C5.86023 7.74362 6.14079 7.74362 6.31563 7.91765C7.631 9.23392 8.94231 10.5462 10.2638 11.8685C10.4386 12.0425 10.7212 12.0445 10.894 11.8705C11.2193 11.5464 11.5385 11.2263 11.8617 10.9043C12.0366 10.7302 12.0366 10.4462 11.8638 10.2721C10.5667 8.97187 9.25133 7.6536 7.91563 6.31532C7.74079 6.14129 7.74079 5.85723 7.91563 5.68319C9.24117 4.35492 10.5606 3.03264 11.8699 1.71837C12.0447 1.54434 12.0427 1.26228 11.8678 1.08824L10.8961 0.126043C10.7232 -0.0439917 10.4407 -0.0419912 10.2658 0.132045Z" fill="#5812CB"/>
</svg>
