<svg width="17" height="11" viewBox="0 0 17 11" fill="none" xmlns="http://www.w3.org/2000/svg">
<path d="M8.35916 6.9181C6.07073 5.91495 1.80665 4.05765 0.440978 3.46685C0.202034 3.36462 0.00971318 3.47204 0.00971318 3.70767V10.5721C0.00971318 10.8077 0.223403 11 0.487601 11H16.5066C16.7708 11 16.9864 10.8094 16.9864 10.5738V3.71633C16.9864 3.48071 16.7941 3.37329 16.5571 3.47724C15.2011 4.06977 10.9856 5.92015 8.72632 6.91983C8.59033 6.98047 8.48932 6.97527 8.35916 6.9181ZM2.2554 2.94361C4.29905 3.83588 6.3427 4.72988 8.3883 5.61695C8.466 5.6516 8.58839 5.66199 8.66415 5.62908C11.3994 4.43188 14.1307 3.22602 16.864 2.02536C16.9631 1.98204 16.9981 1.9318 16.9981 1.82958C16.9942 1.47441 16.9981 0.84722 17 0.427941C17 0.192314 16.7844 0 16.5202 0H0.481774C0.217575 0 0 0.190581 0 0.427941C0 0.848952 0.00388527 1.47787 0.00971318 1.8469C0.0116558 1.90581 0.0835333 1.99071 0.145698 2.01843C0.846989 2.33202 1.55217 2.63522 2.2554 2.94361Z" fill="white"/>
</svg>
