<svg width="26" height="26" viewBox="0 0 26 26" fill="none" xmlns="http://www.w3.org/2000/svg">
<rect width="26" height="26" rx="13" fill="#0274B3"/>
<path d="M18.1127 7H7.8873C7.39742 7 7 7.38533 7 7.86116V18.1402C7 18.616 7.39742 19 7.8873 19H18.1127C18.6026 19 19 18.616 19 18.1402V7.85979C18.9986 7.38533 18.6012 7 18.1127 7ZM10.6375 17.0432H8.82567V11.6267H10.6375V17.0432ZM9.73229 10.8876H9.71987C9.11132 10.8876 8.71941 10.4721 8.71941 9.95098C8.71941 9.41892 9.12512 9.0144 9.74333 9.0144C10.3643 9.0144 10.7452 9.41892 10.7562 9.95098C10.7562 10.4721 10.3643 10.8876 9.73229 10.8876ZM17.173 17.0432H15.3597V14.1457C15.3597 13.4176 15.0989 12.9212 14.4434 12.9212C13.9411 12.9212 13.6431 13.2557 13.512 13.5794C13.465 13.6959 13.454 13.8577 13.454 14.0182V17.0459H11.6408C11.6408 17.0459 11.6642 12.1368 11.6408 11.628H13.454V12.3946C13.6941 12.0257 14.126 11.5005 15.0865 11.5005C16.2787 11.5005 17.173 12.2753 17.173 13.94V17.0432Z" fill="white"/>
</svg>
