<svg width="17" height="19" viewBox="0 0 17 19" fill="none" xmlns="http://www.w3.org/2000/svg">
<path d="M5.6875 14.1569V15.0882C5.6875 15.8293 5.98382 16.54 6.51126 17.064C7.03871 17.588 7.75408 17.8824 8.5 17.8824C9.24592 17.8824 9.96129 17.588 10.4887 17.064C11.0162 16.54 11.3125 15.8293 11.3125 15.0882V14.1569M6.625 2.98039C6.625 2.48636 6.82254 2.01256 7.17418 1.66323C7.52581 1.3139 8.00272 1.11765 8.5 1.11765C8.99728 1.11765 9.47419 1.3139 9.82582 1.66323C10.1775 2.01256 10.375 2.48636 10.375 2.98039C11.4516 3.48615 12.3694 4.27344 13.03 5.25788C13.6907 6.24231 14.0692 7.38678 14.125 8.56863V11.3627C14.1956 11.9418 14.402 12.4963 14.7276 12.9816C15.0533 13.4669 15.4891 13.8695 16 14.1569H1C1.51088 13.8695 1.9467 13.4669 2.27236 12.9816C2.59803 12.4963 2.80445 11.9418 2.875 11.3627V8.56863C2.93084 7.38678 3.30934 6.24231 3.96995 5.25788C4.63056 4.27344 5.54837 3.48615 6.625 2.98039Z" stroke="white" stroke-width="1.5" stroke-linecap="round" stroke-linejoin="round"/>
</svg>
