<svg width="13" height="13" viewBox="0 0 13 13" fill="none" xmlns="http://www.w3.org/2000/svg">
<path d="M12.4724 5.94732C12.4587 5.75395 12.4299 5.54687 12.3791 5.32607H7.67521V0.622139C7.45442 0.572769 7.25419 0.543969 7.07454 0.528883C6.90311 0.506941 6.72483 0.500084 6.54654 0.500084C6.33946 0.500084 6.13924 0.506941 5.94724 0.528883C5.75387 0.542598 5.54679 0.571397 5.32599 0.622139V5.32607H0.622055C0.572685 5.54687 0.535657 5.7471 0.521943 5.92538C0.508228 6.10366 0.5 6.27509 0.5 6.45337C0.5 6.66045 0.506857 6.86068 0.521943 7.05268C0.535657 7.24605 0.571313 7.45313 0.622055 7.67393H5.32599V12.3779C5.54679 12.4272 5.74701 12.4643 5.9253 12.478C6.10358 12.4917 6.27501 12.4999 6.45329 12.4999C6.66037 12.4999 6.8606 12.4931 7.05259 12.478C7.24596 12.4643 7.45304 12.4286 7.67384 12.3779V7.67393H12.3778C12.4271 7.45313 12.4559 7.2529 12.471 7.07325C12.493 6.90182 12.4998 6.72354 12.4998 6.54526C12.5012 6.34092 12.4943 6.14069 12.4724 5.94732Z" fill="#5812CB"/>
</svg>
