<svg width="17" height="17" viewBox="0 0 17 17" fill="none" xmlns="http://www.w3.org/2000/svg">
<path d="M13.6036 11.9672C13.4795 11.8431 13.4625 11.6289 13.5577 11.481C14.3057 10.3301 14.7443 8.95985 14.7443 7.48763C14.7443 3.42118 11.436 0.114639 7.37299 0.114639C3.30654 0.114639 0 3.42118 0 7.48763C0 11.5524 3.30654 14.8589 7.37299 14.8589C8.95571 14.8589 10.4211 14.3506 11.6247 13.4972C11.7658 13.3952 11.9784 13.4088 12.1025 13.5312L14.7375 16.1662C14.7545 16.1832 14.7732 16.2002 14.7919 16.2138C14.8225 16.2393 14.95 16.3583 15.0724 16.4824L15.3852 16.7935C15.5093 16.9159 15.7099 16.9159 15.8323 16.7935L16.9067 15.7191C17.0308 15.595 17.0308 15.3944 16.9084 15.2703L13.6036 11.9672ZM11.8321 10.9217C11.589 11.2379 11.3153 11.5269 11.0127 11.7836C10.0301 12.6183 8.76021 13.1249 7.37299 13.1249C4.26365 13.1249 1.73402 10.5953 1.73402 7.48763C1.73402 4.37999 4.26365 1.84866 7.37299 1.84866C10.4806 1.84866 13.0103 4.37829 13.0103 7.48763C13.0103 8.77965 12.5666 9.96966 11.8321 10.9217Z" fill="#5812CB"/>
</svg>
