<svg width="21" height="19" viewBox="0 0 21 19" fill="none" xmlns="http://www.w3.org/2000/svg">
<path d="M19.677 5.28709C19.677 5.2871 19.6765 5.28741 19.6754 5.28801L19.677 5.28709ZM19.1435 5.54956L10.6647 9.71712C10.6645 9.71719 10.6644 9.71726 10.6642 9.71734C10.6441 9.72697 10.5852 9.74409 10.4996 9.74409C10.4141 9.74409 10.3552 9.72697 10.3351 9.71734C10.3349 9.71726 10.3348 9.71719 10.3346 9.71712L1.8558 5.54956L10.3362 1.38122L10.3378 1.38043C10.3566 1.37109 10.4145 1.35362 10.4996 1.35362C10.5848 1.35362 10.6427 1.37109 10.6615 1.38043L10.6631 1.38122L19.1435 5.54956ZM1.3223 5.28709C1.32232 5.28709 1.32288 5.28739 1.3239 5.28801L1.3223 5.28709Z" stroke="white"/>
<path d="M17.4286 8.81552L19.893 9.07464C20.105 9.18192 20.105 9.35695 19.893 9.46611L10.8836 14.0659C10.6716 14.1732 10.3277 14.1732 10.1157 14.0659L1.1063 9.46611C0.894253 9.35695 0.894253 9.18192 1.1063 9.07464L3.5707 8.81552L10.0545 12.1261C10.2991 12.2522 10.6983 12.2522 10.9429 12.1261L17.4286 8.81552Z" fill="white"/>
<path d="M17.4286 12.8155L19.893 13.0746C20.105 13.1819 20.105 13.3569 19.893 13.4661L10.8836 18.0659C10.6716 18.1732 10.3277 18.1732 10.1157 18.0659L1.1063 13.4661C0.894253 13.3569 0.894253 13.1819 1.1063 13.0746L3.5707 12.8155L10.0545 16.1261C10.2991 16.2522 10.6983 16.2522 10.9429 16.1261L17.4286 12.8155Z" fill="white"/>
</svg>
